<svg width="148" height="36" viewBox="0 0 148 36" fill="none" xmlns="http://www.w3.org/2000/svg">
<path d="M32.6665 21.5479L35.0377 19.1923C35.6991 18.5353 35.6991 17.4702 35.0377 16.8132L32.6665 14.4576C32.0051 13.8006 30.9329 13.8006 30.2716 14.4576L27.9003 16.8132C27.239 17.4702 27.239 18.5353 27.9003 19.1923L30.2716 21.5479C30.9329 22.2049 32.0051 22.2049 32.6665 21.5479Z" fill="#99E1FF"/>
<path d="M1.21423 16.7939C0.546377 17.4573 0.546376 18.5429 1.21423 19.2063L10.2615 28.194C10.9164 28.8445 11.9685 28.8445 12.6234 28.194L14.9945 25.8385C15.662 25.1754 15.6624 24.0905 14.9953 23.4269L10.7517 19.2055C10.0849 18.5423 10.0849 17.458 10.7517 16.7947L14.9953 12.5733C15.6624 11.9098 15.662 10.8248 14.9945 10.1617L12.6234 7.80626C11.9685 7.15573 10.9164 7.15573 10.2615 7.80626L1.21423 16.7939Z" fill="#99E1FF"/>
<path d="M23.5929 21.0884L14.5464 30.0752C13.8851 30.7322 13.8851 31.7974 14.5464 32.4544L16.9177 34.81C17.579 35.467 18.6513 35.467 19.3126 34.81L28.3591 25.8232C29.0204 25.1662 29.0204 24.101 28.3591 23.4441L25.9878 21.0884C25.3265 20.4315 24.2542 20.4315 23.5929 21.0884Z" fill="white"/>
<path d="M14.5683 3.52808C13.9004 4.19153 13.9004 5.27708 14.5683 5.94052L18.8168 10.1611C19.4847 10.8245 19.4847 11.9101 18.8168 12.5735L14.5682 16.7941C13.9004 17.4575 13.9004 18.5431 14.5683 19.2065L16.9385 21.5612C17.5934 22.2117 18.6455 22.2117 19.3004 21.5612L28.3477 12.5735C29.0155 11.9101 29.0155 10.8245 28.3477 10.1611L19.3004 1.17344C18.6455 0.522914 17.5934 0.522915 16.9385 1.17345L14.5683 3.52808Z" fill="white"/>
<path d="M45.2989 28.8627V7.13672H54.0778C56.3518 7.13672 58.0822 7.65872 59.2781 8.70272C60.4739 9.74672 61.0719 11.0877 61.0719 12.7257C61.0719 14.0937 60.7004 15.1827 59.9666 16.0017C59.2237 16.8207 58.3268 17.3697 57.2668 17.6667C58.517 17.9187 59.5499 18.5307 60.3562 19.5117C61.1715 20.4927 61.5702 21.6357 61.5702 22.9407C61.5702 24.6597 60.945 26.0727 59.6948 27.1887C58.4446 28.3047 56.6779 28.8627 54.3858 28.8627H45.2989ZM49.2942 16.2627H53.4798C54.6032 16.2627 55.4639 16.0017 56.0709 15.4887C56.6779 14.9667 56.9769 14.2377 56.9769 13.2837C56.9769 12.3747 56.6779 11.6547 56.089 11.1237C55.4911 10.5927 54.6032 10.3317 53.4164 10.3317H49.2942V16.2627ZM49.2942 25.6317H53.7607C54.9475 25.6317 55.8716 25.3617 56.5239 24.8127C57.1762 24.2637 57.5114 23.4897 57.5114 22.4997C57.5114 21.4827 57.1671 20.6907 56.4786 20.1057C55.7901 19.5297 54.866 19.2327 53.6973 19.2327H49.2942V25.6317Z" fill="white"/>
<path d="M70.4849 29.2308C69.0263 29.2308 67.7217 28.8798 66.5802 28.1778C65.4387 27.4758 64.5327 26.5128 63.8623 25.2888C63.1919 24.0648 62.8657 22.6788 62.8657 21.1308C62.8657 19.5828 63.2009 18.1968 63.8623 16.9907C64.5327 15.7757 65.4387 14.8308 66.5802 14.1378C67.7217 13.4447 69.0263 13.0938 70.4849 13.0938C71.6537 13.0938 72.6683 13.3098 73.5471 13.7418C74.4259 14.1738 75.1326 14.7857 75.6671 15.5687L75.8846 13.4627H79.6625V28.8618H75.9208L75.6671 26.6568C75.1688 27.3408 74.5075 27.9438 73.683 28.4568C72.8586 28.9788 71.7986 29.2308 70.4849 29.2308ZM71.3275 25.7568C72.623 25.7568 73.674 25.3248 74.4984 24.4698C75.3228 23.6148 75.7305 22.5078 75.7305 21.1668C75.7305 19.8258 75.3228 18.7188 74.4984 17.8638C73.674 17.0088 72.614 16.5768 71.3275 16.5768C70.0591 16.5768 69.0082 16.9998 68.1747 17.8458C67.3412 18.6918 66.9245 19.7898 66.9245 21.1398C66.9245 22.4808 67.3412 23.5878 68.1747 24.4608C68.9991 25.3248 70.0591 25.7568 71.3275 25.7568Z" fill="white"/>
<path d="M89.7551 29.2319C88.1697 29.2319 86.7745 28.8899 85.5695 28.2059C84.3646 27.5219 83.4042 26.5679 82.7157 25.3529C82.0181 24.1289 81.6648 22.7339 81.6648 21.1589C81.6648 19.5839 82.009 18.1889 82.7157 16.9649C83.4133 15.7409 84.3646 14.7959 85.5695 14.1119C86.7745 13.4279 88.1697 13.0859 89.7551 13.0859C91.7301 13.0859 93.3971 13.5989 94.7561 14.6249C96.106 15.6509 96.9757 17.0639 97.3472 18.8639H93.1344C92.926 18.1169 92.5183 17.5319 91.9023 17.1089C91.2862 16.6859 90.5614 16.4699 89.7279 16.4699C88.6227 16.4699 87.6895 16.8839 86.9194 17.7119C86.1493 18.5399 85.7598 19.6919 85.7598 21.1589C85.7598 22.6259 86.1493 23.7779 86.9194 24.6059C87.6895 25.4339 88.6227 25.8479 89.7279 25.8479C90.5614 25.8479 91.2862 25.6409 91.9023 25.2269C92.5183 24.8129 92.926 24.2189 93.1344 23.4539H97.3472C96.9757 25.1909 96.106 26.5859 94.7561 27.6479C93.4062 28.7099 91.7392 29.2319 89.7551 29.2319Z" fill="white"/>
<path d="M99.3495 28.8627V7.13672H103.345V19.7097L108.844 13.4727H113.591L107.25 20.4837L114.624 28.8627H109.623L103.345 21.1317V28.8627H99.3495Z" fill="white"/>
<path d="M115.693 28.8619V13.4629H119.688V28.8619H115.693Z" fill="white"/>
<path d="M123.032 28.8627V16.7847H120.912V13.4637H123.032V12.2847C123.032 10.4217 123.503 9.09872 124.454 8.31572C125.405 7.53272 126.692 7.13672 128.313 7.13672H130.035V10.5207H128.939C128.25 10.5207 127.761 10.6557 127.471 10.9257C127.181 11.1957 127.036 11.6457 127.036 12.2937V13.4727H130.379V16.7937H127.036V28.8717H123.032V28.8627Z" fill="white"/>
<path d="M133.912 35.6929L138.596 27.8359H136.567L130.533 13.4629H134.873L139.221 24.2989L143.751 13.4629H148L138.161 35.6929H133.912Z" fill="white"/>
<path d="M119.677 7.19922H115.682V11.1682H119.677V7.19922Z" fill="white"/>
</svg>
