<svg width="284" height="76" viewBox="0 0 284 76" fill="none" xmlns="http://www.w3.org/2000/svg">
<g filter="url(#filter0_d)">
<path d="M77.514 43.168C76.562 43.168 75.7967 42.902 75.218 42.37C74.6487 41.8287 74.364 41.0633 74.364 40.074H76.156C76.1653 40.5313 76.2727 40.8953 76.478 41.166C76.6833 41.4367 77.0147 41.572 77.472 41.572C77.9013 41.572 78.214 41.446 78.41 41.194C78.606 40.9327 78.704 40.592 78.704 40.172V33.2H80.496V40.172C80.496 41.1333 80.2253 41.8753 79.684 42.398C79.152 42.9113 78.4287 43.168 77.514 43.168ZM88.1152 43.168C87.1352 43.168 86.2765 42.9533 85.5392 42.524C84.8112 42.0947 84.2372 41.502 83.8172 40.746C83.4065 39.9807 83.2012 39.0987 83.2012 38.1C83.2012 37.1013 83.4065 36.224 83.8172 35.468C84.2372 34.7027 84.8112 34.1053 85.5392 33.676C86.2765 33.2467 87.1352 33.032 88.1152 33.032C89.0858 33.032 89.9398 33.2467 90.6772 33.676C91.4145 34.1053 91.9885 34.7027 92.3992 35.468C92.8098 36.224 93.0152 37.1013 93.0152 38.1C93.0152 39.0987 92.8098 39.9807 92.3992 40.746C91.9885 41.502 91.4145 42.0947 90.6772 42.524C89.9398 42.9533 89.0858 43.168 88.1152 43.168ZM88.1152 41.558C89.0485 41.558 89.7905 41.25 90.3412 40.634C90.9012 40.018 91.1812 39.1733 91.1812 38.1C91.1812 37.0267 90.9012 36.182 90.3412 35.566C89.7905 34.95 89.0485 34.642 88.1152 34.642C87.1818 34.642 86.4352 34.95 85.8752 35.566C85.3152 36.182 85.0352 37.0267 85.0352 38.1C85.0352 39.1733 85.3152 40.018 85.8752 40.634C86.4352 41.25 87.1818 41.558 88.1152 41.558ZM95.7174 43V33.2H97.5094V43H95.7174ZM100.529 43V33.2H102.321L106.927 40.102V33.2H108.719V43H106.927L102.321 36.112V43H100.529ZM119.975 43.168C119.256 43.168 118.607 43.028 118.029 42.748C117.45 42.4587 116.988 42.0247 116.643 41.446C116.307 40.8673 116.139 40.1347 116.139 39.248V33.2H117.931V39.262C117.931 40.0273 118.113 40.5967 118.477 40.97C118.85 41.3433 119.363 41.53 120.017 41.53C120.661 41.53 121.169 41.3433 121.543 40.97C121.916 40.5967 122.103 40.0273 122.103 39.262V33.2H123.895V39.248C123.895 40.1347 123.717 40.8673 123.363 41.446C123.008 42.0247 122.532 42.4587 121.935 42.748C121.347 43.028 120.693 43.168 119.975 43.168ZM130.19 43.168C129.471 43.168 128.837 43.0467 128.286 42.804C127.735 42.552 127.301 42.1973 126.984 41.74C126.667 41.2733 126.503 40.7087 126.494 40.046H128.384C128.403 40.5033 128.566 40.8907 128.874 41.208C129.191 41.516 129.625 41.67 130.176 41.67C130.652 41.67 131.03 41.558 131.31 41.334C131.59 41.1007 131.73 40.7927 131.73 40.41C131.73 40.0087 131.604 39.696 131.352 39.472C131.109 39.248 130.783 39.066 130.372 38.926C129.961 38.786 129.523 38.6367 129.056 38.478C128.3 38.2167 127.721 37.8807 127.32 37.47C126.928 37.0593 126.732 36.5133 126.732 35.832C126.723 35.2533 126.858 34.7587 127.138 34.348C127.427 33.928 127.819 33.606 128.314 33.382C128.809 33.1487 129.378 33.032 130.022 33.032C130.675 33.032 131.249 33.1487 131.744 33.382C132.248 33.6153 132.64 33.942 132.92 34.362C133.209 34.782 133.363 35.2813 133.382 35.86H131.464C131.455 35.5147 131.319 35.2113 131.058 34.95C130.806 34.6793 130.451 34.544 129.994 34.544C129.602 34.5347 129.271 34.6327 129 34.838C128.739 35.034 128.608 35.3233 128.608 35.706C128.608 36.0327 128.711 36.294 128.916 36.49C129.121 36.6767 129.401 36.8353 129.756 36.966C130.111 37.0967 130.517 37.2367 130.974 37.386C131.459 37.554 131.903 37.75 132.304 37.974C132.705 38.198 133.027 38.4967 133.27 38.87C133.513 39.234 133.634 39.7053 133.634 40.284C133.634 40.7973 133.503 41.2733 133.242 41.712C132.981 42.1507 132.593 42.5053 132.08 42.776C131.567 43.0373 130.937 43.168 130.19 43.168ZM145.365 43.168C144.385 43.168 143.527 42.9533 142.789 42.524C142.061 42.0947 141.487 41.502 141.067 40.746C140.657 39.9807 140.451 39.0987 140.451 38.1C140.451 37.1013 140.657 36.224 141.067 35.468C141.487 34.7027 142.061 34.1053 142.789 33.676C143.527 33.2467 144.385 33.032 145.365 33.032C146.336 33.032 147.19 33.2467 147.927 33.676C148.665 34.1053 149.239 34.7027 149.649 35.468C150.06 36.224 150.265 37.1013 150.265 38.1C150.265 39.0987 150.06 39.9807 149.649 40.746C149.239 41.502 148.665 42.0947 147.927 42.524C147.19 42.9533 146.336 43.168 145.365 43.168ZM145.365 41.558C146.299 41.558 147.041 41.25 147.591 40.634C148.151 40.018 148.431 39.1733 148.431 38.1C148.431 37.0267 148.151 36.182 147.591 35.566C147.041 34.95 146.299 34.642 145.365 34.642C144.432 34.642 143.685 34.95 143.125 35.566C142.565 36.182 142.285 37.0267 142.285 38.1C142.285 39.1733 142.565 40.018 143.125 40.634C143.685 41.25 144.432 41.558 145.365 41.558ZM152.968 43V33.2H154.76L159.366 40.102V33.2H161.158V43H159.366L154.76 36.112V43H152.968ZM170.915 43V34.642H168.059V33.2H175.577V34.642H172.707V43H170.915ZM178.025 43V33.2H184.423V34.642H179.817V37.33H184.003V38.73H179.817V41.558H184.423V43H178.025ZM187.239 43V33.2H189.031V41.6H193.371V43H187.239ZM196.07 43V33.2H202.468V34.642H197.862V37.33H202.048V38.73H197.862V41.558H202.468V43H196.07ZM209.567 43.168C208.643 43.168 207.836 42.958 207.145 42.538C206.455 42.118 205.918 41.5347 205.535 40.788C205.153 40.032 204.961 39.1547 204.961 38.156C204.961 37.148 205.157 36.2613 205.549 35.496C205.951 34.7213 206.515 34.1193 207.243 33.69C207.981 33.2513 208.853 33.032 209.861 33.032C211.009 33.032 211.961 33.3073 212.717 33.858C213.473 34.4087 213.963 35.1693 214.187 36.14H212.185C212.036 35.6827 211.765 35.328 211.373 35.076C210.981 34.8147 210.477 34.684 209.861 34.684C208.881 34.684 208.125 34.9967 207.593 35.622C207.061 36.238 206.795 37.0873 206.795 38.17C206.795 39.2527 207.057 40.0927 207.579 40.69C208.111 41.278 208.83 41.572 209.735 41.572C210.622 41.572 211.289 41.334 211.737 40.858C212.195 40.3727 212.47 39.738 212.563 38.954H210.085V37.61H214.369V43H212.717L212.577 41.712C212.26 42.1787 211.863 42.538 211.387 42.79C210.911 43.042 210.305 43.168 209.567 43.168ZM217.231 43V33.2H220.829C221.613 33.2 222.257 33.3353 222.761 33.606C223.275 33.8673 223.657 34.2267 223.909 34.684C224.161 35.132 224.287 35.6313 224.287 36.182C224.287 36.7793 224.129 37.3253 223.811 37.82C223.503 38.3147 223.018 38.674 222.355 38.898L224.385 43H222.327L220.507 39.136H219.023V43H217.231ZM219.023 37.82H220.717C221.315 37.82 221.753 37.6753 222.033 37.386C222.313 37.0967 222.453 36.714 222.453 36.238C222.453 35.7713 222.313 35.398 222.033 35.118C221.763 34.838 221.319 34.698 220.703 34.698H219.023V37.82ZM226.444 43L230.028 33.2H232.044L235.628 43H233.724L232.94 40.732H229.118L228.32 43H226.444ZM229.608 39.332H232.45L231.022 35.258L229.608 39.332ZM238.01 43V33.2H240.138L243.26 39.416L246.34 33.2H248.468V43H246.676V36.238L243.946 41.6H242.532L239.802 36.238V43H238.01Z" fill="#FFECC7"/>
<path d="M18 12H266V8H18V12ZM272 18V58H276V18H272ZM266 64H18V68H266V64ZM12 58V18H8V58H12ZM18 64C14.6863 64 12 61.3137 12 58H8C8 63.5228 12.4771 68 18 68V64ZM272 58C272 61.3137 269.314 64 266 64V68C271.523 68 276 63.5228 276 58H272ZM266 12C269.314 12 272 14.6863 272 18H276C276 12.4772 271.523 8 266 8V12ZM18 8C12.4772 8 8 12.4772 8 18H12C12 14.6863 14.6863 12 18 12V8Z" fill="#FFA800"/>
</g>
<path d="M52.9927 31.6793C52.9927 31.6794 52.991 31.6796 52.9879 31.6795C52.9912 31.6792 52.9927 31.6793 52.9927 31.6793ZM51.924 30.5232L37.9951 39.0449L32.1938 37.2806L32.1931 37.2804C32.033 37.2319 31.92 37.1814 31.8435 37.1383C31.9666 37.039 32.1805 36.9131 32.5181 36.7849C32.5186 36.7847 32.5191 36.7845 32.5196 36.7843L56.4647 27.8208C56.848 27.6821 57.0378 27.7773 57.1017 27.8375C57.1659 27.8979 57.3287 28.134 57.2065 28.7649L57.1894 28.8436L53.1157 47.5072C52.9854 48.0626 52.7991 48.1958 52.7314 48.2258C52.6629 48.2561 52.4517 48.2983 51.9966 48.0587L45.8282 43.6419L45.3285 43.2841L44.8795 43.7037L41.99 46.4037L42.3203 41.8603L53.5911 31.9653C53.5918 31.9646 53.5926 31.964 53.5933 31.9634C53.765 31.8142 54.0188 31.5389 54.0336 31.1452C54.053 30.6288 53.6761 30.3416 53.3955 30.2445C53.1338 30.154 52.8595 30.1702 52.6352 30.2198C52.3998 30.2718 52.157 30.3737 51.924 30.5232ZM31.7358 37.2465C31.7352 37.2479 31.7348 37.2485 31.7347 37.2485C31.7347 37.2485 31.735 37.2478 31.7358 37.2465Z" stroke="#FFECC7" stroke-width="1.5"/>
<defs>
<filter id="filter0_d" x="0" y="0" width="284" height="76" filterUnits="userSpaceOnUse" color-interpolation-filters="sRGB">
<feFlood flood-opacity="0" result="BackgroundImageFix"/>
<feColorMatrix in="SourceAlpha" type="matrix" values="0 0 0 0 0 0 0 0 0 0 0 0 0 0 0 0 0 0 127 0"/>
<feOffset/>
<feGaussianBlur stdDeviation="5"/>
<feColorMatrix type="matrix" values="0 0 0 0 1 0 0 0 0 0.66 0 0 0 0 0 0 0 0 1 0"/>
<feBlend mode="normal" in2="BackgroundImageFix" result="effect1_dropShadow"/>
<feBlend mode="normal" in="SourceGraphic" in2="effect1_dropShadow" result="shape"/>
</filter>
</defs>
</svg>
