<svg width="27" height="22" viewBox="0 0 27 22" fill="none" xmlns="http://www.w3.org/2000/svg">
<path d="M21.9927 4.67934C21.9927 4.67942 21.991 4.67957 21.9879 4.67953C21.9912 4.67924 21.9927 4.67926 21.9927 4.67934ZM20.924 3.52323L6.99506 12.0449L1.19382 10.2806L1.19313 10.2804C1.03301 10.2319 0.919969 10.1814 0.843467 10.1383C0.966649 10.039 1.18051 9.91313 1.51809 9.78487C1.51859 9.78468 1.5191 9.78449 1.5196 9.7843L25.4647 0.820761C25.848 0.682123 26.0378 0.7773 26.1017 0.837478C26.1659 0.89789 26.3287 1.134 26.2065 1.76486L26.1894 1.8436L22.1157 20.5072C21.9854 21.0626 21.7991 21.1958 21.7314 21.2258C21.6629 21.2561 21.4517 21.2983 20.9966 21.0587L14.8282 16.6419L14.3285 16.2841L13.8795 16.7037L10.99 19.4037L11.3203 14.8603L22.5911 4.96526C22.5918 4.96463 22.5926 4.96399 22.5933 4.96335C22.765 4.81423 23.0188 4.53888 23.0336 4.14515C23.053 3.62884 22.6761 3.34158 22.3955 3.24451C22.1338 3.15395 21.8595 3.1702 21.6352 3.21979C21.3998 3.27182 21.157 3.37372 20.924 3.52323ZM0.73582 10.2465C0.735163 10.2479 0.734757 10.2485 0.734718 10.2485C0.734679 10.2485 0.735007 10.2478 0.73582 10.2465Z" stroke="#FFECC7" stroke-width="1.5"/>
</svg>
